<svg width="220" height="56" viewBox="0 0 220 56" fill="none" xmlns="http://www.w3.org/2000/svg"><path fill="#EE3643" d="M0 0h220v56H0z"/><path fill="#B52933" d="M0 50.4h220V56H0z"/><path fill-rule="evenodd" clip-rule="evenodd" d="M159.7 17.54V34.1h-2.11V17.54h-3.75V15.7h9.61v1.84h-3.75Zm-8.12 9.74c-.37.52-.83.89-1.39 1.1-.55.22-1.21.33-1.98.33a10.7 10.7 0 0 1-2.34-.26v5.65h-2.11V15.96c.6-.2 1.19-.33 1.79-.4.6-.09 1.25-.13 1.96-.13.94 0 1.73.11 2.39.33.66.22 1.19.59 1.6 1.1.4.5.7 1.18.88 2.02.2.84.29 1.88.29 3.13a16 16 0 0 1-.27 3.2 5.48 5.48 0 0 1-.82 2.07Zm-1.2-7.64a3.95 3.95 0 0 0-.55-1.5 2.02 2.02 0 0 0-.95-.77 3.79 3.79 0 0 0-1.37-.23h-1.64v9.73h1.64c.53 0 .99-.07 1.37-.22.38-.15.7-.4.95-.78.25-.36.43-.86.55-1.5.12-.63.18-1.42.18-2.36 0-.95-.06-1.74-.18-2.37Zm-11.9 9.73h-4.69l-1.05 4.73h-2.11l3.98-18.4h3.05l3.99 18.4h-2.11l-1.06-4.73Zm-2.3-11.04h-.09l-1.94 9.2h3.98l-1.95-9.2Zm-10.12 2.1h-.12l-3.4 11.3h-2.11l-3.4-11.3h-.12l-.7 13.67h-2.11l.94-18.4h2.58l3.82 12.62h.1l3.81-12.62h2.58l.94 18.4h-2.11l-.7-13.67ZM110.3 32.39a3.83 3.83 0 0 1-1.58 1.53c-.62.3-1.33.45-2.12.45-.8 0-1.5-.15-2.13-.45-.61-.3-1.14-.8-1.58-1.53a8.68 8.68 0 0 1-1-2.9 25.8 25.8 0 0 1-.33-4.59c0-1.84.11-3.37.34-4.59a8.68 8.68 0 0 1 1-2.9c.43-.72.96-1.23 1.57-1.53.62-.3 1.33-.45 2.13-.45.8 0 1.5.15 2.12.45.62.3 1.14.8 1.58 1.53.44.71.77 1.68 1 2.9.22 1.22.34 2.75.34 4.59 0 1.84-.12 3.37-.34 4.59a8.68 8.68 0 0 1-1 2.9Zm-1.02-11.38a10.06 10.06 0 0 0-.64-2.42c-.27-.6-.58-1-.94-1.24a2.04 2.04 0 0 0-1.1-.34c-.38 0-.74.12-1.1.34-.36.23-.68.64-.94 1.24-.27.6-.48 1.4-.65 2.42a25.08 25.08 0 0 0-.24 3.89c0 1.58.08 2.88.24 3.9.17 1 .38 1.82.65 2.41.26.6.58 1 .94 1.24.36.23.72.34 1.1.34.37 0 .74-.11 1.1-.34.36-.23.67-.64.94-1.24.26-.6.48-1.4.64-2.42.16-1.01.25-2.31.25-3.89s-.09-2.87-.25-3.9Zm-12.65 4.68h-4.92v8.41H89.6V15.7h2.11v8.15h4.92V15.7h2.11v18.4h-2.1V25.7ZM85.5 34.1l-2.93-7.88-2.93 7.88h-2.11l3.51-9.46-3.16-8.94h2.1l2.59 7.36 2.58-7.36h2.1l-3.16 8.94 3.52 9.46H85.5ZM68.27 15.7h7.97v1.84h-5.86v6.05h5.15v1.84h-5.15v6.83h5.86v1.84h-7.97V15.7Zm-5.63 18.4h-2.11V17.54h-3.75V15.7h9.61v1.84h-3.75V34.1Z" fill="#fff"/></svg>