<svg width="36" height="36" viewBox="0 0 36 36" fill="none" xmlns="http://www.w3.org/2000/svg"><path fill-rule="evenodd" clip-rule="evenodd" d="M17.9132 1.2141c9.1877 0 16.6358 7.4482 16.6358 16.6361 0 9.1875-7.4481 16.6357-16.6358 16.6357-9.1878 0-16.6359-7.4482-16.6359-16.6357 0-9.1879 7.448-16.6361 16.6359-16.6361Z" fill="#293449"/><path d="M18.04 7C11.9485 7 7 11.9485 7 18.04c0 6.0915 4.9485 11.04 11.04 11.04 6.0916 0 11.04-4.9485 11.04-11.04C29.08 11.9485 24.1316 7 18.04 7Zm0 .96c5.5727 0 10.08 4.5073 10.08 10.08s-4.5073 10.08-10.08 10.08a10.1002 10.1002 0 0 1-2.9297-.4331c.413-.6904.9461-1.6772 1.1579-2.4919.1258-.4831.6431-2.4534.6431-2.4534.3362.6418 1.3185 1.185 2.3644 1.185 3.1122 0 5.3559-2.8623 5.3559-6.4191 0-3.41-2.7826-5.9606-6.3628-5.9606-4.4543 0-6.8185 2.9895-6.8185 6.2447 0 1.5138.8052 3.3983 2.0944 3.9984.1953.0909.3002.0515.345-.1378.0346-.1437.2087-.8441.2869-1.17.025-.104.0129-.1939-.0713-.2963-.4266-.5175-.7687-1.4682-.7687-2.355 0-2.2763 1.7233-4.4793 4.6594-4.4793 2.5351 0 4.3106 1.7282 4.3106 4.199 0 2.7916-1.4096 4.726-3.2438 4.726-1.0129 0-1.7714-.838-1.5281-1.8657.2918-1.2265.855-2.55.855-3.4359 0-.7923-.4251-1.4531-1.3059-1.4531-1.0356 0-1.8675 1.0706-1.8675 2.5059 0 .9133.3094 1.5319.3094 1.5319s-1.023 4.325-1.2104 5.13c-.1877.8044-.1374 1.8878-.06 2.6944C10.5622 25.8892 7.96 22.2733 7.96 18.04c0-5.5727 4.5073-10.08 10.08-10.08Z" fill="#FEFAFA"/></svg>