<svg width="36" height="36" viewBox="0 0 36 36" fill="none" xmlns="http://www.w3.org/2000/svg">
<g id="Sosial / icon / Vsco">
<path id="Shape 2 copy 4" fill-rule="evenodd" clip-rule="evenodd" d="M18 0C27.9411 0 36 8.05895 36 18.0002C36 27.941 27.9411 36 18 36C8.05884 36 3.05176e-05 27.941 3.05176e-05 18.0002C3.05176e-05 8.05895 8.05884 0 18 0Z" fill="#293449"/>
<path id="Vector" d="M17.8063 6.26031C17.7524 6.26118 17.6991 6.27042 17.648 6.2877C16.7673 6.30071 15.9015 6.39517 15.0817 6.60013C14.7261 6.68671 14.3747 6.7961 14.0257 6.92371C13.9421 6.93313 13.862 6.96272 13.7924 7.00993C13.3463 7.17306 12.9134 7.36201 12.5021 7.58001C11.8271 7.93061 11.1948 8.36596 10.6032 8.85001C10.524 8.88217 10.454 8.93339 10.3993 8.99912C10.3441 9.04533 10.2888 9.09145 10.235 9.14113C9.55014 9.74989 8.93568 10.4399 8.40811 11.2013C8.25286 11.4245 8.11062 11.657 7.97396 11.8911C7.91923 11.9527 7.87995 12.0264 7.85933 12.1061C7.25959 13.1672 6.82684 14.3367 6.59846 15.5722C6.56352 15.6453 6.54615 15.7256 6.54775 15.8066C6.51752 15.9753 6.48855 16.1453 6.46964 16.3249C6.41582 16.7743 6.38849 17.2293 6.38849 17.6933C6.38849 18.1573 6.41582 18.6123 6.46964 19.0617C6.48855 19.2413 6.51752 19.4113 6.54775 19.58C6.54631 19.6607 6.56367 19.7406 6.59846 19.8133C6.82662 21.0483 7.25809 22.2177 7.8573 23.2784C7.87821 23.3591 7.91822 23.4336 7.97396 23.4955C8.11077 23.7298 8.25268 23.9629 8.40811 24.1863C8.93625 24.9484 9.5508 25.6327 10.233 26.2445C10.2866 26.294 10.3422 26.3393 10.3973 26.3855L10.3983 26.3865C10.4533 26.4532 10.5241 26.5052 10.6042 26.5376H10.6052C11.1964 27.0211 11.8277 27.4563 12.5021 27.8066C12.9134 28.0246 13.3463 28.2135 13.7924 28.3767C13.8617 28.4237 13.9414 28.4533 14.0247 28.4629C14.374 28.5907 14.7258 28.6998 15.0817 28.7865C15.9015 28.9914 16.7673 29.0859 17.648 29.0989C17.7559 29.1354 17.8729 29.1354 17.9808 29.0989C18.8615 29.0859 19.7273 28.9914 20.5471 28.7865C20.9027 28.6999 21.2541 28.5905 21.6031 28.4629C21.6867 28.4535 21.7668 28.4239 21.8364 28.3767C22.2825 28.2135 22.7154 28.0246 23.1267 27.8066C23.8017 27.456 24.434 27.0206 25.0256 26.5366C25.1048 26.5044 25.1748 26.4532 25.2295 26.3875C25.2853 26.3408 25.3415 26.2947 25.3958 26.2445C26.078 25.6327 26.6926 24.9484 27.2207 24.1863V24.1853C27.3759 23.9621 27.5182 23.7296 27.6548 23.4955C27.7096 23.4339 27.7489 23.3602 27.7695 23.2805C28.3692 22.2194 28.802 21.0499 29.0303 19.8144C29.0653 19.7413 29.0827 19.661 29.0811 19.58C29.1112 19.4113 29.1403 19.2413 29.1592 19.0617C29.213 18.6123 29.2403 18.1573 29.2403 17.6933C29.2403 17.2293 29.213 16.7743 29.1592 16.3249C29.1403 16.1453 29.1113 15.9753 29.0811 15.8066C29.0825 15.7259 29.0651 15.646 29.0303 15.5733C28.8022 14.3383 28.3707 13.1689 27.7715 12.1082C27.7506 12.0275 27.7106 11.953 27.6548 11.8911C27.5182 11.657 27.3759 11.4245 27.2207 11.2013V11.2003C26.6932 10.4391 26.0785 9.74973 25.3938 9.14113C25.3407 9.0921 25.286 9.04678 25.2315 9.00115C25.2312 9.00081 25.2308 9.00047 25.2305 9.00013C25.1755 8.9334 25.1047 8.88145 25.0246 8.84899C25.0242 8.84899 25.0239 8.84899 25.0236 8.84899C24.4325 8.36554 23.8011 7.93027 23.1267 7.58001C22.7154 7.36201 22.2825 7.17306 21.8364 7.00993C21.7671 6.96288 21.6874 6.93329 21.6041 6.92371C21.2549 6.79594 20.903 6.68678 20.5471 6.60013C19.7273 6.39517 18.8615 6.30071 17.9808 6.2877C17.9246 6.26868 17.8656 6.25942 17.8063 6.26031ZM13.9141 6.95617C13.9105 6.95743 13.9076 6.95998 13.904 6.96124C13.9024 6.96187 13.9006 6.96163 13.8989 6.96226L13.9141 6.95617ZM21.7147 6.95617L21.7299 6.96226C21.7283 6.96164 21.7265 6.96187 21.7248 6.96124C21.7212 6.95998 21.7183 6.95743 21.7147 6.95617ZM17.295 7.36902V9.44544C16.7969 9.47695 16.2974 9.50746 15.8272 9.62194C15.8269 9.62194 15.8266 9.62194 15.8262 9.62194C15.7061 9.6514 15.589 9.69588 15.4702 9.73048L14.7601 7.78187C14.9493 7.72368 15.1312 7.65682 15.3302 7.60841C15.3312 7.60808 15.3322 7.60774 15.3332 7.6074C15.9571 7.45144 16.6256 7.40309 17.295 7.36902ZM18.3338 7.36902C19.0032 7.40309 19.6717 7.45144 20.2956 7.6074C20.2966 7.60774 20.2976 7.60808 20.2986 7.60841C20.4976 7.65682 20.6795 7.72368 20.8687 7.78187L20.1586 9.73048C20.0398 9.69588 19.9227 9.6514 19.8026 9.62194C19.8022 9.62194 19.8019 9.62194 19.8016 9.62194C19.3314 9.50747 18.8319 9.47695 18.3338 9.44544V7.36902ZM13.7873 8.144L14.4964 10.0946C14.3145 10.1741 14.1292 10.2416 13.9527 10.3371L13.9517 10.3381C13.673 10.4848 13.4245 10.6894 13.1615 10.8676C13.0554 10.8816 12.9562 10.928 12.8774 11.0005L11.5709 9.44443C12.0242 9.10129 12.4821 8.75992 12.985 8.49903C12.9863 8.49836 12.9877 8.49769 12.989 8.497C13.2487 8.35934 13.5194 8.25674 13.7873 8.144ZM21.8415 8.144C22.1094 8.25674 22.3801 8.35934 22.6398 8.497C22.6411 8.49769 22.6425 8.49836 22.6438 8.49903C23.1467 8.75992 23.6046 9.10129 24.0579 9.44443L22.7514 11.0005C22.6725 10.9283 22.5733 10.8823 22.4673 10.8686C22.2042 10.6903 21.9559 10.4849 21.6771 10.3381C21.5002 10.2423 21.3147 10.1743 21.1324 10.0946L21.8415 8.144ZM10.7645 10.0987L12.1045 11.6953C11.6931 12.0876 11.2984 12.501 10.9724 12.9734C10.9437 13.0146 10.9218 13.0577 10.8943 13.0992L9.09383 12.0595C9.15039 11.9716 9.20216 11.8786 9.2612 11.7937C9.2612 11.7934 9.2612 11.793 9.2612 11.7927C9.69481 11.1669 10.2123 10.6126 10.7645 10.0987ZM24.8643 10.0987C25.4165 10.6126 25.934 11.1669 26.3676 11.7927C26.3676 11.793 26.3676 11.7934 26.3676 11.7937C26.4266 11.8786 26.4784 11.9716 26.535 12.0595L24.7345 13.0992C24.707 13.0577 24.6851 13.0146 24.6564 12.9734L24.6543 12.9714C24.3288 12.4999 23.935 12.0869 23.5243 11.6953L24.8643 10.0987ZM17.295 10.4842V12.5261C16.5371 12.6019 15.8286 12.8453 15.2014 13.2128L13.9943 11.5523C14.1458 11.4586 14.2776 11.3397 14.4365 11.2561C14.4382 11.2551 14.4399 11.2541 14.4416 11.2531C14.7052 11.1101 14.9881 10.9894 15.2764 10.8818C15.3159 10.8718 15.354 10.8571 15.39 10.8382C15.6085 10.758 15.833 10.6893 16.0737 10.6302L16.0727 10.6312C16.4643 10.5359 16.8813 10.514 17.295 10.4842ZM18.3338 10.4842C18.7475 10.514 19.1645 10.5359 19.5561 10.6312L19.5551 10.6302C19.7961 10.6893 20.0211 10.7579 20.2398 10.8382C20.2764 10.8576 20.3152 10.8726 20.3554 10.8828C20.6427 10.9902 20.9245 11.1106 21.1872 11.2531C21.1889 11.2541 21.1906 11.2551 21.1923 11.2561C21.3512 11.3397 21.483 11.4586 21.6345 11.5523L20.4274 13.2128C19.8002 12.8453 19.0917 12.6019 18.3338 12.5261V10.4842ZM13.1361 12.1376L14.3625 13.8255C13.8123 14.3172 13.3651 14.9212 13.0631 15.6047L11.0901 14.9616C11.2072 14.6657 11.3358 14.3779 11.4928 14.1085C11.5169 14.0755 11.537 14.0397 11.5527 14.002C11.6406 13.8508 11.7299 13.7045 11.8265 13.5658C11.8269 13.5651 11.8272 13.5645 11.8276 13.5638C12.1617 13.0796 12.5552 12.6375 12.9921 12.2492C12.9927 12.2485 12.9934 12.2478 12.9941 12.2471C13.0262 12.2183 13.0445 12.2031 13.0671 12.1842C13.0678 12.1839 13.0685 12.1836 13.0692 12.1832C13.0926 12.1698 13.115 12.1545 13.1361 12.1376ZM22.4927 12.1376C22.5132 12.1537 22.5349 12.1683 22.5576 12.1812C22.581 12.2005 22.601 12.2168 22.6347 12.2471C22.6354 12.2478 22.6361 12.2485 22.6367 12.2492C23.0736 12.6375 23.4671 13.0796 23.8012 13.5638C23.8016 13.5645 23.8019 13.5651 23.8023 13.5658C23.8991 13.7048 23.9881 13.8516 24.0761 14.003C24.092 14.0415 24.1124 14.0779 24.137 14.1116C24.1373 14.1119 24.1377 14.1122 24.138 14.1126C24.293 14.3791 24.4219 14.6657 24.5417 14.9606L22.5657 15.6047C22.2637 14.9212 21.8165 14.3172 21.2663 13.8255L22.4927 12.1376ZM8.59577 12.9704L10.3963 14.0091C10.2762 14.2514 10.143 14.4882 10.0494 14.7415V14.7425C10.0222 14.8121 10.0129 14.8901 9.98749 14.9606C9.9454 15.0144 9.91433 15.0759 9.89606 15.1417C9.87778 15.2075 9.87266 15.2762 9.88098 15.344C9.84065 15.4763 9.8017 15.6092 9.76838 15.7447L7.71935 15.3836C7.91077 14.5348 8.20593 13.7266 8.59577 12.9704ZM27.033 12.9704C27.4229 13.7266 27.718 14.5348 27.9095 15.3836L25.8624 15.7447C25.8291 15.6064 25.7896 15.4704 25.7488 15.3349C25.7625 15.2044 25.7262 15.0736 25.6474 14.9687C25.6212 14.8949 25.613 14.8144 25.5845 14.7415C25.4881 14.4891 25.3553 14.2508 25.2345 14.0081L27.033 12.9704ZM17.7535 13.5415C17.7953 13.5466 17.8375 13.5466 17.8793 13.5415C18.7238 13.5544 19.5064 13.8153 20.1556 14.2576C20.207 14.3189 20.2719 14.3675 20.3453 14.3996C20.9722 14.8814 21.4547 15.5374 21.7248 16.2975C21.7316 16.38 21.7581 16.4596 21.8019 16.5298C21.909 16.8992 21.9693 17.2886 21.9693 17.6933C21.9693 18.0973 21.9086 18.4859 21.8019 18.8548C21.7578 18.9255 21.7313 19.0059 21.7248 19.0891C21.455 19.8483 20.9731 20.5033 20.3473 20.9849C20.273 21.0173 20.2074 21.0667 20.1556 21.129C19.5053 21.572 18.7214 21.8329 17.8753 21.8451C17.8335 21.84 17.7913 21.84 17.7495 21.8451C15.9682 21.8178 14.4691 20.6791 13.904 19.0891C13.8972 19.0066 13.8707 18.927 13.8269 18.8568C13.7198 18.4874 13.6595 18.098 13.6595 17.6933C13.6595 17.2893 13.7202 16.9007 13.8269 16.5318C13.871 16.4611 13.8975 16.3807 13.904 16.2975C14.4695 14.7063 15.9705 13.5671 17.7535 13.5415ZM24.8481 15.9526C24.8833 16.0954 24.9396 16.2297 24.9657 16.3766C24.9685 16.4169 24.976 16.4568 24.9881 16.4953C25.0042 16.6043 25.0205 16.7104 25.0317 16.8108C25.0317 16.8122 25.0317 16.8135 25.0317 16.8149C25.0658 17.1027 25.0854 17.3992 25.0854 17.6933C25.0854 17.9874 25.0658 18.2839 25.0317 18.5717C25.0317 18.5731 25.0317 18.5745 25.0317 18.5758C25.0204 18.6769 25.0043 18.7836 24.9881 18.8933C24.9763 18.9309 24.9688 18.9697 24.9657 19.0089C24.9396 19.1562 24.8834 19.2909 24.8481 19.434L22.8873 18.7959C22.9647 18.4401 23.008 18.0719 23.008 17.6933C23.008 17.3147 22.9647 16.9465 22.8873 16.5907L24.8481 15.9526ZM10.7828 15.9537L12.7415 16.5907C12.6641 16.9465 12.6208 17.3147 12.6208 17.6933C12.6208 18.0719 12.6641 18.4401 12.7415 18.7959L10.7828 19.4329C10.7469 19.2905 10.6891 19.1549 10.6631 19.0089C10.6602 18.969 10.6527 18.9295 10.6407 18.8913C10.6246 18.7823 10.6083 18.6762 10.5971 18.5758C10.5971 18.5745 10.5971 18.5731 10.5971 18.5717C10.563 18.2839 10.5434 17.9874 10.5434 17.6933C10.5434 17.3992 10.563 17.1027 10.5971 16.8149C10.5971 16.8135 10.5971 16.8122 10.5971 16.8108C10.6084 16.7098 10.6245 16.603 10.6407 16.4933C10.6525 16.4561 10.66 16.4176 10.6631 16.3787C10.6891 16.2324 10.7468 16.0965 10.7828 15.9537ZM7.50734 16.401L9.56145 16.7631C9.52781 17.0666 9.50465 17.3779 9.50465 17.6933C9.50465 18.0087 9.52781 18.32 9.56145 18.6235L7.50734 18.9856C7.50614 18.9749 7.5034 18.9639 7.50227 18.9532C7.50195 18.9504 7.50162 18.9477 7.50126 18.945C7.45184 18.5349 7.42721 18.1198 7.42721 17.6933C7.42721 17.2668 7.45184 16.8517 7.50126 16.4416C7.50162 16.4389 7.50195 16.4362 7.50227 16.4335C7.5034 16.4227 7.50614 16.4117 7.50734 16.401ZM28.1215 16.401C28.1227 16.4117 28.1254 16.4227 28.1265 16.4335C28.1268 16.4362 28.1272 16.4389 28.1275 16.4416C28.1769 16.8517 28.2016 17.2668 28.2016 17.6933C28.2016 18.1198 28.177 18.5349 28.1275 18.945C28.1272 18.9477 28.1268 18.9504 28.1265 18.9532C28.1254 18.9639 28.1227 18.9749 28.1215 18.9856L26.0674 18.6235C26.101 18.32 26.1242 18.0087 26.1242 17.6933C26.1242 17.3779 26.101 17.0666 26.0674 16.7631L28.1215 16.401ZM9.76838 19.6419C9.80178 19.7777 9.84054 19.911 9.88098 20.0436C9.86445 20.1801 9.90275 20.3177 9.98749 20.426C10.0129 20.4965 10.0222 20.5745 10.0494 20.6441V20.6451C10.143 20.8984 10.2762 21.1352 10.3963 21.3775L8.59577 22.4162C8.20593 21.66 7.91077 20.8518 7.71935 20.003L9.76838 19.6419ZM25.8624 19.6419L27.9095 20.003C27.718 20.8518 27.4229 21.66 27.033 22.4162L25.2345 21.3785C25.3553 21.1358 25.4881 20.8975 25.5845 20.6451C25.6131 20.5719 25.6211 20.491 25.6474 20.4169C25.7265 20.3118 25.7628 20.1805 25.7488 20.0497C25.7894 19.9148 25.8293 19.7795 25.8624 19.6419ZM13.0631 19.7819C13.3651 20.4654 13.8123 21.0694 14.3625 21.5611L13.1361 23.249C13.1156 23.2329 13.0939 23.2183 13.0712 23.2054C13.0478 23.1861 13.0278 23.1698 12.9941 23.1395C12.9934 23.1388 12.9927 23.1381 12.9921 23.1374C12.5552 22.7491 12.1617 22.307 11.8276 21.8228C11.8272 21.8221 11.8269 21.8215 11.8265 21.8208C11.7297 21.6818 11.6407 21.535 11.5527 21.3836C11.5368 21.3451 11.5164 21.3087 11.4918 21.275C11.4918 21.2747 11.4918 21.2744 11.4918 21.274C11.3357 21.0057 11.2067 20.7196 11.0901 20.425L13.0631 19.7819ZM22.5657 19.7819L24.5417 20.426C24.4214 20.7221 24.2918 21.0097 24.136 21.2771C24.1118 21.3104 24.0918 21.3465 24.0761 21.3846C23.9882 21.5358 23.8989 21.6821 23.8023 21.8208C23.8019 21.8215 23.8016 21.8221 23.8012 21.8228C23.4671 22.307 23.0736 22.7491 22.6367 23.1374C22.6361 23.1381 22.6354 23.1388 22.6347 23.1395C22.6026 23.1683 22.5843 23.1835 22.5617 23.2024C22.5612 23.2028 22.5602 23.2029 22.5596 23.2034C22.5362 23.2168 22.5138 23.2321 22.4927 23.249L21.2663 21.5611C21.8165 21.0694 22.2637 20.4654 22.5657 19.7819ZM15.2014 22.1738C15.8286 22.5413 16.5371 22.7847 17.295 22.8605V24.9024C16.8813 24.8726 16.4643 24.8507 16.0727 24.7554L16.0737 24.7564C15.8327 24.6973 15.6077 24.6287 15.389 24.5484C15.3524 24.529 15.3136 24.514 15.2734 24.5038C14.9861 24.3964 14.7043 24.276 14.4416 24.1336C14.4399 24.1325 14.4382 24.1315 14.4365 24.1305C14.2776 24.0469 14.1458 23.928 13.9943 23.8343L15.2014 22.1738ZM20.4274 22.1738L21.6345 23.8343C21.483 23.928 21.3512 24.0469 21.1923 24.1305C21.1906 24.1315 21.1889 24.1325 21.1872 24.1336C20.9236 24.2765 20.6407 24.3972 20.3524 24.5048C20.3129 24.5148 20.2748 24.5295 20.2388 24.5484C20.0203 24.6286 19.7958 24.6973 19.5551 24.7564L19.5561 24.7554C19.1645 24.8507 18.7475 24.8726 18.3338 24.9024V22.8605C19.0917 22.7847 19.8002 22.5413 20.4274 22.1738ZM10.8943 22.2874C10.9223 22.3297 10.9452 22.3732 10.9745 22.4152C11.3 22.8867 11.6938 23.2997 12.1045 23.6913L10.7645 25.2879C10.211 24.7698 9.69385 24.2184 9.2612 23.5939C9.2612 23.5936 9.2612 23.5932 9.2612 23.5929C9.20216 23.508 9.15039 23.415 9.09383 23.3271L10.8943 22.2874ZM24.7345 22.2874L26.535 23.3271C26.4784 23.415 26.4266 23.508 26.3676 23.5929C26.3676 23.5932 26.3676 23.5936 26.3676 23.5939C25.935 24.2184 25.4178 24.7698 24.8643 25.2879L23.5243 23.6913C23.935 23.2997 24.3288 22.8867 24.6543 22.4152L24.6564 22.4132C24.6851 22.372 24.707 22.3289 24.7345 22.2874ZM12.8774 24.3861C12.9562 24.4586 13.0554 24.505 13.1615 24.519C13.4245 24.6972 13.673 24.9018 13.9517 25.0485L13.9527 25.0495C14.1292 25.145 14.3145 25.2125 14.4964 25.292L13.7873 27.2426C13.5194 27.1299 13.2487 27.0273 12.989 26.8896C12.9877 26.8889 12.9863 26.8882 12.985 26.8876C12.4821 26.6267 12.0242 26.2853 11.5709 25.9422L12.8774 24.3861ZM22.7514 24.3871L24.0579 25.9422C23.6046 26.2853 23.1467 26.6267 22.6438 26.8876C22.6425 26.8882 22.6411 26.8889 22.6398 26.8896C22.3801 27.0273 22.1094 27.1299 21.8415 27.2426L21.1324 25.292C21.3143 25.2125 21.4996 25.145 21.6761 25.0495L21.6771 25.0485C21.9558 24.9018 22.2043 24.6972 22.4673 24.519C22.5733 24.5053 22.6725 24.4593 22.7514 24.3871ZM15.4702 25.6561C15.589 25.6907 15.7061 25.7352 15.8262 25.7647C15.8266 25.7647 15.8269 25.7647 15.8272 25.7647C16.2974 25.8791 16.7969 25.9096 17.295 25.9412V28.0176C16.6256 27.9835 15.9571 27.9352 15.3332 27.7792C15.3322 27.7789 15.3312 27.7785 15.3302 27.7782C15.1312 27.7298 14.9493 27.6629 14.7601 27.6047L15.4702 25.6561ZM20.1586 25.6561L20.8687 27.6047C20.6795 27.6629 20.4976 27.7298 20.2986 27.7782C20.2976 27.7785 20.2966 27.7789 20.2956 27.7792C19.6717 27.9351 19.0032 27.9835 18.3338 28.0176V25.9412C18.8319 25.9096 19.3314 25.8791 19.8016 25.7647C19.8019 25.7647 19.8022 25.7647 19.8026 25.7647C19.9227 25.7352 20.0398 25.6907 20.1586 25.6561ZM13.8989 28.4243C13.9005 28.425 13.9023 28.4247 13.904 28.4254C13.9076 28.4266 13.9105 28.4291 13.9141 28.4304L13.8989 28.4243ZM21.7299 28.4243L21.7147 28.4304C21.7183 28.4292 21.7212 28.4267 21.7248 28.4254C21.7264 28.4248 21.7283 28.4249 21.7299 28.4243Z" fill="#FEFAFA"/>
</g>
</svg>
