<svg width="36" height="36" viewBox="0 0 36 36" fill="none" xmlns="http://www.w3.org/2000/svg"><path fill-rule="evenodd" clip-rule="evenodd" d="M18 0c9.9411 0 18 8.059 18 18.0002C36 27.941 27.9411 36 18 36 8.0588 36 0 27.941 0 18.0002 0 8.0589 8.0588 0 18 0Z" fill="#293449"/><path d="M17.8063 6.2603a.52.52 0 0 0-.1583.0274c-.8807.013-1.7465.1075-2.5663.3124-.3556.0866-.707.196-1.056.3236a.5192.5192 0 0 0-.2333.0862c-.4461.1632-.879.3521-1.2903.5701-.675.3506-1.3073.786-1.8989 1.27a.5196.5196 0 0 0-.2039.1491c-.0552.0462-.1105.0923-.1643.142a11.5833 11.5833 0 0 0-1.8269 2.0602c-.1552.2232-.2975.4557-.4341.6898a.5197.5197 0 0 0-.1147.215 11.1736 11.1736 0 0 0-1.2608 3.4661.5198.5198 0 0 0-.0507.2344c-.0303.1687-.0592.3387-.0782.5183a11.4839 11.4839 0 0 0-.0811 1.3684c0 .464.0273.919.0811 1.3684.019.1796.048.3496.0781.5183a.519.519 0 0 0 .0508.2333 11.173 11.173 0 0 0 1.2588 3.4651.519.519 0 0 0 .1167.2171c.1368.2343.2787.4674.4341.6908.5282.7621 1.1427 1.4464 1.8249 2.0582.0536.0495.1092.0948.1643.141l.001.001a.5195.5195 0 0 0 .2059.1511h.001c.5912.4835 1.2225.9187 1.8969 1.269.4113.218.8442.4069 1.2903.5701a.52.52 0 0 0 .2323.0862 9.8865 9.8865 0 0 0 1.057.3236c.8198.2049 1.6856.2994 2.5663.3124a.5194.5194 0 0 0 .3328 0c.8807-.013 1.7465-.1075 2.5663-.3124.3556-.0866.707-.196 1.056-.3236a.5191.5191 0 0 0 .2333-.0862c.4461-.1632.879-.3521 1.2903-.5701.675-.3506 1.3073-.786 1.8989-1.27a.5202.5202 0 0 0 .2039-.1491c.0558-.0467.112-.0928.1663-.143.6822-.6118 1.2968-1.2961 1.8249-2.0582v-.001c.1552-.2232.2975-.4557.4341-.6898a.5188.5188 0 0 0 .1147-.215 11.1725 11.1725 0 0 0 1.2608-3.4661.5191.5191 0 0 0 .0508-.2344c.0301-.1687.0592-.3387.0781-.5183a11.488 11.488 0 0 0 .0811-1.3684c0-.464-.0273-.919-.0811-1.3684-.0189-.1796-.0479-.3496-.0781-.5183a.5195.5195 0 0 0-.0508-.2333 11.1716 11.1716 0 0 0-1.2588-3.4651.5183.5183 0 0 0-.1167-.2171c-.1366-.2341-.2789-.4666-.4341-.6898v-.001a11.5819 11.5819 0 0 0-1.8269-2.0592c-.0531-.049-.1078-.0943-.1623-.14l-.001-.001a.5199.5199 0 0 0-.2059-.1511h-.001c-.5911-.4835-1.2225-.9187-1.8969-1.269-.4113-.218-.8442-.407-1.2903-.57a.5191.5191 0 0 0-.2323-.0863 9.8748 9.8748 0 0 0-1.057-.3236c-.8198-.205-1.6856-.2994-2.5663-.3124a.52.52 0 0 0-.1745-.0274Zm-3.8922.6959c-.0036.0012-.0065.0038-.0101.005-.0016.0007-.0034.0004-.0051.001l.0152-.006Zm7.8006 0 .0152.006c-.0016-.0006-.0034-.0003-.0051-.001-.0036-.0012-.0065-.0038-.0101-.005Zm-4.4197.4128v2.0764c-.4981.0316-.9976.062-1.4678.1765h-.001c-.1201.0295-.2372.074-.356.1086l-.7101-1.9486c.1892-.0582.3711-.125.5701-.1735l.003-.001c.6239-.156 1.2924-.2043 1.9618-.2384Zm1.0388 0c.6694.034 1.3379.0824 1.9618.2384l.003.001c.199.0484.3809.1153.5701.1735l-.7101 1.9486c-.1188-.0346-.2359-.0791-.356-.1086h-.001c-.4702-.1144-.9697-.145-1.4678-.1765V7.369Zm-4.5465.775.7091 1.9506c-.1819.0795-.3672.147-.5437.2425l-.001.001c-.2787.1467-.5272.3513-.7902.5295a.52.52 0 0 0-.2841.1329l-1.3065-1.556c.4533-.3432.9112-.6846 1.4141-.9455l.004-.002c.2597-.1377.5304-.2403.7983-.353Zm8.0542 0c.2679.1127.5386.2153.7983.353l.004.002c.5029.261.9608.6023 1.4141.9454l-1.3065 1.5561a.5193.5193 0 0 0-.2841-.1319c-.2631-.1783-.5114-.3837-.7902-.5305-.1769-.0958-.3624-.1638-.5447-.2435l.7091-1.9506Zm-11.077 1.9547 1.34 1.5966c-.4114.3923-.8061.8057-1.1321 1.2781-.0287.0412-.0506.0843-.0781.1258l-1.8005-1.0397c.0566-.0879.1084-.1809.1674-.2658v-.001c.4336-.6258.9511-1.1801 1.5033-1.694Zm14.0998 0c.5522.5139 1.0697 1.0682 1.5033 1.694v.001c.059.0849.1108.1779.1674.2658l-1.8005 1.0397c-.0275-.0415-.0494-.0846-.0781-.1258l-.0021-.002c-.3255-.4715-.7193-.8845-1.13-1.2761l1.34-1.5966Zm-7.5693.3855v2.0419c-.7579.0758-1.4664.3192-2.0936.6867l-1.2071-1.6605c.1515-.0937.2833-.2126.4422-.2962l.0051-.003c.2636-.143.5465-.2637.8348-.3713a.5179.5179 0 0 0 .1136-.0436 6.3918 6.3918 0 0 1 .6837-.208l-.001.001c.3916-.0953.8086-.1172 1.2223-.147Zm1.0388 0c.4137.0298.8307.0517 1.2223.147l-.001-.001c.241.0591.466.1277.6847.208a.5199.5199 0 0 0 .1156.0446c.2873.1074.5691.2278.8318.3703l.0051.003c.1589.0836.2907.2025.4422.2962l-1.2071 1.6605c-.6272-.3675-1.3357-.6109-2.0936-.6867v-2.0419Zm-5.1977 1.6534 1.2264 1.6879c-.5502.4917-.9974 1.0957-1.2994 1.7792l-1.973-.6431c.1171-.2959.2457-.5837.4027-.8531a.5188.5188 0 0 0 .0599-.1065c.0879-.1512.1772-.2975.2738-.4362l.0011-.002a7.3415 7.3415 0 0 1 1.1665-1.3167c.0321-.0288.0504-.044.073-.0629l.0021-.001a.5226.5226 0 0 0 .0669-.0456Zm9.3566 0a.5255.5255 0 0 0 .0649.0436c.0234.0193.0434.0356.0771.0659a7.3415 7.3415 0 0 1 1.1665 1.3167l.0011.002c.0968.139.1858.2858.2738.4372a.522.522 0 0 0 .0609.1086l.001.001c.155.2665.2839.5531.4037.848l-1.976.6441c-.302-.6835-.7492-1.2875-1.2994-1.7792l1.2264-1.6879Zm-13.897.8328 1.8006 1.0387c-.1201.2423-.2533.4791-.3469.7324v.001c-.0272.0696-.0365.1476-.062.2181a.5194.5194 0 0 0-.1064.3834 7.5853 7.5853 0 0 0-.1126.4007l-2.049-.3611c.1914-.8488.4865-1.657.8764-2.4132Zm18.4373 0c.3899.7562.685 1.5644.8765 2.4132l-2.0471.3611a7.5597 7.5597 0 0 0-.1136-.4098.5194.5194 0 0 0-.1014-.3662c-.0262-.0738-.0344-.1543-.0629-.2272-.0964-.2524-.2292-.4907-.35-.7334l1.7985-1.0377Zm-9.2795.5711a.519.519 0 0 0 .1258 0c.8445.0129 1.6271.2738 2.2763.7161a.5188.5188 0 0 0 .1897.142 4.1423 4.1423 0 0 1 1.3795 1.8979.5195.5195 0 0 0 .0771.2323c.1071.3694.1674.7588.1674 1.1635 0 .404-.0607.7926-.1674 1.1615a.5193.5193 0 0 0-.0771.2343 4.1417 4.1417 0 0 1-1.3775 1.8958.5193.5193 0 0 0-.1917.1441c-.6503.443-1.4342.7039-2.2803.7161a.519.519 0 0 0-.1258 0c-1.7813-.0273-3.2804-1.166-3.8455-2.756a.5195.5195 0 0 0-.0771-.2323 4.1683 4.1683 0 0 1-.1674-1.1635c0-.404.0607-.7926.1674-1.1615a.5193.5193 0 0 0 .0771-.2343c.5655-1.5912 2.0665-2.7304 3.8495-2.756Zm7.0946 2.4111c.0352.1428.0915.2771.1176.424a.5152.5152 0 0 0 .0224.1187c.0161.109.0324.2151.0436.3155v.0041c.0341.2878.0537.5843.0537.8784 0 .2941-.0196.5906-.0537.8784v.0041c-.0113.1011-.0274.2078-.0436.3175a.5242.5242 0 0 0-.0224.1156c-.0261.1473-.0823.282-.1176.4251l-1.9608-.6381a5.178 5.178 0 0 0 .1207-1.1026 5.178 5.178 0 0 0-.1207-1.1026l1.9608-.6381Zm-14.0653.0011 1.9587.637a5.178 5.178 0 0 0-.1207 1.1026c0 .3786.0433.7468.1207 1.1026l-1.9587.637c-.0359-.1424-.0937-.278-.1197-.424a.5178.5178 0 0 0-.0224-.1176c-.0161-.109-.0324-.2151-.0436-.3155v-.0041a7.5064 7.5064 0 0 1-.0537-.8784c0-.2941.0196-.5906.0537-.8784v-.0041c.0113-.101.0274-.2078.0436-.3175a.5144.5144 0 0 0 .0224-.1146c.026-.1463.0837-.2822.1197-.425Zm-3.2755.4473 2.0542.3621c-.0337.3035-.0569.6148-.0569.9302s.0232.6267.0569.9302l-2.0542.3621c-.0012-.0107-.0039-.0217-.005-.0324a10.4273 10.4273 0 0 1-.075-1.2599 10.4273 10.4273 0 0 1 .075-1.2598c.0011-.0108.0038-.0218.005-.0325Zm20.6142 0c.0012.0107.0039.0217.005.0325l.001.0081c.0494.4101.0741.8252.0741 1.2517s-.0246.8416-.0741 1.2517l-.001.0082c-.0011.0107-.0038.0217-.005.0324l-2.0541-.3621c.0336-.3035.0568-.6148.0568-.9302s-.0232-.6267-.0568-.9302l2.0541-.3621ZM9.7684 19.6419c.0334.1358.0721.2691.1126.4017a.5194.5194 0 0 0 .1065.3824c.0254.0705.0347.1485.0619.2181v.001c.0936.2533.2268.4901.3469.7324l-1.8005 1.0387a10.1144 10.1144 0 0 1-.8765-2.4132l2.049-.3611Zm16.094 0 2.0471.3611a10.1155 10.1155 0 0 1-.8765 2.4132l-1.7985-1.0377c.1208-.2427.2536-.481.35-.7334.0286-.0732.0366-.1541.0629-.2282a.519.519 0 0 0 .1014-.3672c.0406-.1349.0805-.2702.1136-.4078Zm-12.7993.14c.302.6835.7492 1.2875 1.2994 1.7792l-1.2264 1.6879a.5255.5255 0 0 0-.0649-.0436c-.0234-.0193-.0434-.0356-.0771-.0659l-.002-.0021a7.3415 7.3415 0 0 1-1.1645-1.3146l-.0011-.002c-.0968-.139-.1858-.2858-.2738-.4372a.522.522 0 0 0-.0609-.1086v-.001c-.1561-.2683-.2851-.5544-.4017-.849l1.973-.6431Zm9.5026 0 1.976.6441c-.1203.2961-.2499.5837-.4057.8511a.519.519 0 0 0-.0599.1075c-.0879.1512-.1772.2975-.2738.4362l-.0011.002a7.3415 7.3415 0 0 1-1.1665 1.3167c-.0321.0288-.0504.044-.073.0629-.0005.0004-.0015.0005-.0021.001a.5226.5226 0 0 0-.0669.0456l-1.2264-1.6879c.5502-.4917.9974-1.0957 1.2994-1.7792Zm-7.3643 2.3919c.6272.3675 1.3357.6109 2.0936.6867v2.0419c-.4137-.0298-.8307-.0517-1.2223-.147l.001.001a6.3805 6.3805 0 0 1-.6847-.208.5199.5199 0 0 0-.1156-.0446c-.2873-.1074-.5691-.2278-.8318-.3702a.139.139 0 0 0-.0051-.0031c-.1589-.0836-.2907-.2025-.4422-.2962l1.2071-1.6605Zm5.226 0 1.2071 1.6605c-.1515.0937-.2833.2126-.4422.2962a.139.139 0 0 0-.0051.0031c-.2636.1429-.5465.2636-.8348.3712a.5179.5179 0 0 0-.1136.0436 6.3918 6.3918 0 0 1-.6837.208l.001-.001c-.3916.0953-.8086.1172-1.2223.147v-2.0419c.7579-.0758 1.4664-.3192 2.0936-.6867Zm-9.5331.1136c.028.0423.0509.0858.0802.1278.3255.4715.7193.8845 1.13 1.2761l-1.34 1.5966c-.5535-.5181-1.0707-1.0695-1.5033-1.694v-.001c-.059-.0849-.1108-.1779-.1674-.2658l1.8005-1.0397Zm13.8402 0 1.8005 1.0397c-.0566.0879-.1084.1809-.1674.2658v.001c-.4326.6245-.9498 1.1759-1.5033 1.694l-1.34-1.5966c.4107-.3916.8045-.8046 1.13-1.2761l.0021-.002c.0287-.0412.0506-.0843.0781-.1258Zm-11.8571 2.0987a.52.52 0 0 0 .2841.1329c.263.1782.5115.3828.7902.5295l.001.001c.1765.0955.3618.163.5437.2425l-.7091 1.9506c-.2679-.1127-.5386-.2153-.7983-.353a.0745.0745 0 0 0-.004-.002c-.5029-.2609-.9608-.6023-1.4141-.9454l1.3065-1.5561Zm9.874.001 1.3065 1.5551c-.4533.3431-.9112.6845-1.4141.9454a.0745.0745 0 0 0-.004.002c-.2597.1377-.5304.2403-.7983.353l-.7091-1.9506c.1819-.0795.3672-.147.5437-.2425l.001-.001c.2787-.1467.5272-.3513.7902-.5295a.5193.5193 0 0 0 .2841-.1319Zm-7.2812 1.269c.1188.0346.2359.0791.356.1086h.001c.4702.1144.9697.1449 1.4678.1765v2.0764c-.6694-.0341-1.3379-.0824-1.9618-.2384l-.003-.001c-.199-.0484-.3809-.1153-.5701-.1735l.7101-1.9486Zm4.6884 0 .7101 1.9486c-.1892.0582-.3711.1251-.5701.1735l-.003.001c-.6239.1559-1.2924.2043-1.9618.2384v-2.0764c.4981-.0316.9976-.0621 1.4678-.1765h.001c.1201-.0295.2372-.074.356-.1086Zm-6.2597 2.7682c.0016.0007.0034.0004.0051.0011.0036.0012.0065.0037.0101.005l-.0152-.0061Zm7.831 0-.0152.0061c.0036-.0012.0065-.0037.0101-.005.0016-.0006.0035-.0005.0051-.0011Z" fill="#FEFAFA"/></svg>