<svg width="87" height="64" viewBox="0 0 87 64" fill="none" xmlns="http://www.w3.org/2000/svg"><path d="M70.0228 20.7609h-5.426l1.6348-18.7704a1.1432 1.1432 0 0 0 .0037-.101c0-.0029.0004-.0055.0004-.0084v-.0014c0-.5108-.3082-.9611-.7612-1.1569-.0039-.0017-.0076-.0037-.0115-.0054a1.225 1.225 0 0 0-.0865-.0316c-.0109-.0036-.0214-.008-.0323-.0113-.0239-.0072-.0485-.013-.0729-.0189-.0172-.004-.0337-.0089-.051-.0122-.0214-.0043-.0436-.007-.0655-.0101-.0205-.003-.0407-.0066-.0614-.0085-.0035-.0003-.0067-.001-.0103-.0013-.0222-.002-.0441-.0017-.0661-.0025-.0148-.0005-.0293-.0022-.0441-.0022H39.1361c-.6969 0-1.2625.5656-1.2625 1.2625 0 .6952.5656 1.2624 1.2625 1.2624h24.4607l-2.5125 28.8477c-.0004.0022-.0004.0044-.0007.0066l-.634 7.2788H16.5811l.7338-7.5746h8.3527c.6974 0 1.2625-.5652 1.2625-1.2624 0-.6973-.5651-1.2625-1.2625-1.2625h-8.108l1.5493-15.9906h13.294c.6974 0 1.2624-.5653 1.2624-1.2625 0-.6972-.565-1.2625-1.2624-1.2625H19.3537l.7285-7.518h14.004c.6952 0 1.2625-.5672 1.2625-1.2624 0-.697-.5673-1.2625-1.2625-1.2625H18.9364l-.0018.0001c-.5931-.0001-1.1075.4173-1.2319.996-.0008.0043-.0023.0083-.0032.0125a1.365 1.365 0 0 0-.0148.096c-.0012.0102-.0034.02-.0044.0303-.0001.002-.0007.0038-.0008.0058l-.8625 8.9022H1.5125C.815 10.6617.25 11.227.25 11.9242c0 .6972.565 1.2625 1.2625 1.2625h15.0597l-1.5493 15.9906h-4.5044c-.6974 0-1.2625.5652-1.2625 1.2625 0 .6972.5651 1.2624 1.2625 1.2624h4.2598l-.8437 8.7063c-.0001.0013-.0001.0027-.0003.0039l-1.3044 13.4629-.0005.0045-.0005.0049c-.0017.0175-.0015.0347-.0025.0522-.0012.0232-.0036.0459-.0036.0695l.0002.0032c0 .0325.0023.0645.0047.0965.001.0102.0007.0207.0019.0308.0033.0326.0089.0648.0148.0968.0016.0094.0025.019.0043.0282.0049.0243.0118.0477.0182.0714.0044.0167.0079.0337.013.05.0015.0046.0035.0089.0049.0136.0611.1879.1648.3566.3001.4943.0025.0025.0045.0053.0071.0077.0134.0135.0281.0256.0422.0384.087.0798.1854.1474.2929.2005.0224.0111.0445.0227.0673.0323.0069.003.0144.005.0214.0077.0317.0126.0635.0248.0963.035.003.0009.0059.0014.0089.0024.0374.0111.0751.0209.1137.0288.005.001.0102.0013.0151.0023.0367.0069.0736.0128.1111.0165.0008 0 .0015.0002.0024.0004.0414.004.0824.006.1232.006l.0018-.0001h5.6203c.6206 4.7053 4.6546 8.3497 9.527 8.3497 4.872 0 8.906-3.6444 9.5267-8.3497h20.25c.6208 4.7053 4.6547 8.3497 9.5268 8.3497 4.872 0 8.9064-3.6444 9.5272-8.3497h5.6216l.0027.0001a1.283 1.283 0 0 0 .1246-.0065c.0074-.0007.0144-.0022.0218-.0031a1.1986 1.1986 0 0 0 .0975-.0148c.0138-.0027.0271-.0064.0407-.0096a1.2116 1.2116 0 0 0 .0739-.019c.0165-.0049.0325-.0106.0487-.0162a1.0917 1.0917 0 0 0 .0618-.0227c.0175-.0069.0341-.0145.0511-.022a1.2635 1.2635 0 0 0 .2537-.1537c.0138-.011.0278-.0217.0413-.0332a1.1318 1.1318 0 0 0 .0501-.0456c.0115-.0109.0234-.0217.0345-.0332a1.3557 1.3557 0 0 0 .0509-.0557c.0089-.0102.0181-.0202.0267-.0306a1.3856 1.3856 0 0 0 .0522-.0702c.0057-.0083.0121-.016.0177-.0244a1.2728 1.2728 0 0 0 .0577-.0951 1.2047 1.2047 0 0 0 .0557-.114c.0044-.0106.0078-.0215.012-.0321a1.168 1.168 0 0 0 .0289-.0793c.0056-.0175.0096-.0355.0145-.0532.0056-.021.0115-.0419.0162-.0633.0042-.019.0069-.0385.0101-.0579.0028-.017.0065-.0337.0087-.051.0536-.4289 1.0422-8.3605 1.4837-13.4892.0005-.0049.0007-.0099.0012-.0148.1271-1.4785.2085-2.7234.2085-3.4856 0-9.0497-7.3624-16.4123-16.4122-16.4123Zm-5.646 2.5253h5.1649l-.6597 7.5742h-5.1649l.6597-7.5742ZM29.0359 61.0936c-3.9081 0-7.0876-3.1794-7.0876-7.0874 0-3.9079 3.1796-7.0874 7.0876-7.0874s7.0874 3.1795 7.0874 7.0874c0 3.908-3.1794 7.0874-7.0874 7.0874Zm39.3032 0c-3.9079 0-7.0872-3.1794-7.0872-7.0874 0-3.9079 3.1794-7.0874 7.0872-7.0874 3.9082 0 7.0876 3.1795 7.0876 7.0874 0 3.908-3.1794 7.0874-7.0876 7.0874Zm14.0333-8.3503h-4.5057c-.6205-4.7057-4.6547-8.3503-9.5272-8.3503-4.8722 0-8.9064 3.6447-9.5269 8.3503H38.5628c-.6205-4.7057-4.6545-8.3503-9.5269-8.3503-4.8723 0-8.9067 3.6447-9.5272 8.3503h-4.2325l1.0603-10.9422h45.2701v.0007h.0018a1.244 1.244 0 0 0 .1256-.0066c.0078-.0007.0153-.0024.0231-.0034a1.2273 1.2273 0 0 0 .0981-.015c.014-.0028.0276-.0067.0414-.0101.0253-.006.0505-.0119.0751-.0193.0168-.0051.0328-.0111.0491-.0169.0213-.0074.0425-.0146.063-.023.0177-.0072.0347-.0153.0518-.0234a1.2294 1.2294 0 0 0 .0554-.0266c.0172-.0091.034-.0189.051-.0286a1.405 1.405 0 0 0 .0514-.0312c.0163-.0106.0318-.0217.0474-.0328a1.2446 1.2446 0 0 0 .049-.0365 1.3146 1.3146 0 0 0 .0429-.0359 1.3558 1.3558 0 0 0 .0849-.0804 1.583 1.583 0 0 0 .0443-.0488c.0112-.0132.0224-.0263.0331-.0398a1.27 1.27 0 0 0 .0404-.0542c.01-.0138.0195-.0276.029-.0417.0123-.019.024-.0386.0353-.0584.0086-.0148.0174-.0297.0251-.0448.0106-.0199.0197-.0401.0293-.0604.0074-.0164.015-.0324.0217-.0492.0083-.0199.0152-.0402.0224-.0606.0062-.018.0128-.036.0183-.0545.0056-.0196.0101-.0396.0152-.0595.0049-.02.0103-.0398.0141-.0602.0039-.0199.0063-.0401.0093-.0603.003-.0209.0066-.0414.0086-.0626.0003-.003.001-.0059.0012-.0089l.6327-7.2635h6.5249c3.868 0 5.6126 2.0042 7.4594 4.1261 1.5239 1.7508 3.2252 3.7043 6.1171 4.1809-.3673 3.8834-.961 8.8686-1.2266 11.0516Zm1.4424-13.5816c-1.876-.3825-3.0303-1.7014-4.4286-3.3079-1.7488-2.009-3.8837-4.4608-7.9764-4.9176l.6532-7.4988c6.6935.9899 11.8471 6.7717 11.8471 13.7361 0 .4732-.0354 1.1606-.0953 1.9882Z" fill="#CA2C37"/><path d="M29.036 49.377c-2.5524 0-4.6291 2.0765-4.6291 4.6291 0 2.5525 2.0767 4.629 4.6291 4.629 2.5523 0 4.629-2.0765 4.629-4.629 0-2.5524-2.0767-4.6291-4.629-4.6291Zm0 6.7332c-1.1604 0-2.1042-.9438-2.1042-2.1041 0-1.1604.9438-2.1042 2.1042-2.1042 1.1603 0 2.1041.9438 2.1041 2.1042 0 1.1603-.944 2.1041-2.1041 2.1041ZM68.3391 49.377c-2.5524 0-4.6291 2.0765-4.6291 4.6291 0 2.5525 2.0767 4.629 4.6291 4.629s4.6291-2.0765 4.6291-4.629c0-2.5524-2.0767-4.6291-4.6291-4.6291Zm0 6.7332c-1.1603 0-2.1041-.9438-2.1041-2.1041 0-1.1604.9438-2.1042 2.1041-2.1042 1.1603 0 2.1041.9438 2.1041 2.1042 0 1.1603-.9438 2.1041-2.1041 2.1041ZM12.2014 20.7613h-6.172c-.6974 0-1.2625.5652-1.2625 1.2625 0 .6972.5651 1.2625 1.2625 1.2625h6.172c.6974 0 1.2625-.5653 1.2625-1.2625 0-.6973-.5651-1.2625-1.2625-1.2625Z" fill="#CA2C37"/></svg>