<svg width="78" height="78" viewBox="0 0 78 78" fill="none" xmlns="http://www.w3.org/2000/svg"><g fill="#fff"><path d="M73.425 12.225H64.5v-2.55a3.836 3.836 0 0 0-3.825-3.825H51.75V2.025A1.275 1.275 0 0 0 50.475.75H2.025A1.275 1.275 0 0 0 .75 2.025v71.4A1.275 1.275 0 0 0 2.025 74.7h38.48a3.838 3.838 0 0 0 3.595 2.55h7.65a3.836 3.836 0 0 0 3.825-3.825V51.75h1.275a1.275 1.275 0 0 0 1.275-1.275v-5.1A1.275 1.275 0 0 0 56.85 44.1h-5.1V39h21.675a3.836 3.836 0 0 0 3.825-3.825V16.05a3.836 3.836 0 0 0-3.825-3.825Zm-8.925 10.2v-2.55h5.1V31.35H51.75v-5.1h8.925a3.836 3.836 0 0 0 3.825-3.825ZM60.675 8.4a1.275 1.275 0 0 1 1.275 1.275v12.75a1.275 1.275 0 0 1-1.275 1.275h-45.9a1.275 1.275 0 0 1-1.275-1.275V9.675A1.275 1.275 0 0 1 14.775 8.4h45.9Zm-28.05 19.125A3.836 3.836 0 0 0 28.8 31.35v8.925a1.275 1.275 0 1 1-2.55 0V36.45a3.825 3.825 0 1 0-7.65 0v14.025a1.275 1.275 0 1 1-2.55 0V26.25H39v10.2a1.275 1.275 0 1 1-2.55 0v-5.1a3.836 3.836 0 0 0-3.825-3.825Zm7.65 44.625H3.3V3.3h45.9v2.55H14.775a3.836 3.836 0 0 0-3.825 3.825v2.55H9.675a2.557 2.557 0 0 0-2.55 2.55v2.55a2.558 2.558 0 0 0 2.55 2.55h1.275v2.55a3.838 3.838 0 0 0 2.55 3.595v24.455a3.825 3.825 0 1 0 7.65 0V36.45a1.275 1.275 0 1 1 2.55 0v3.825a3.825 3.825 0 1 0 7.65 0V31.35a1.275 1.275 0 1 1 2.55 0v5.1a3.825 3.825 0 1 0 7.65 0v-10.2h7.65v5.1h-1.275a3.836 3.836 0 0 0-3.825 3.825V44.1H39a1.275 1.275 0 0 0-1.275 1.275v5.1A1.275 1.275 0 0 0 39 51.75h1.275v20.4ZM10.95 14.775v2.55H9.675v-2.55h1.275Zm42.075 58.65A1.275 1.275 0 0 1 51.75 74.7H44.1a1.275 1.275 0 0 1-1.275-1.275V51.75h10.2v21.675Zm2.55-26.775v2.55h-15.3v-2.55h15.3ZM74.7 35.175a1.275 1.275 0 0 1-1.275 1.275H51.75A2.558 2.558 0 0 0 49.2 39v5.1h-2.55v-8.925a1.275 1.275 0 0 1 1.275-1.275H69.6a2.558 2.558 0 0 0 2.55-2.55V19.875a2.558 2.558 0 0 0-2.55-2.55h-5.1v-2.55h8.925A1.275 1.275 0 0 1 74.7 16.05v19.125Z"/><path d="M17.325 56.85a3.825 3.825 0 1 0 0 7.65 3.825 3.825 0 0 0 0-7.65Zm0 5.1a1.275 1.275 0 1 1 0-2.55 1.275 1.275 0 0 1 0 2.55ZM27.525 46.65a3.825 3.825 0 1 0 0 7.65 3.825 3.825 0 0 0 0-7.65Zm0 5.1a1.275 1.275 0 1 1 0-2.549 1.275 1.275 0 0 1 0 2.549ZM16.05 12.225a1.275 1.275 0 0 0 1.275 1.275H51.75a1.275 1.275 0 0 0 0-2.55H17.325a1.275 1.275 0 0 0-1.275 1.275ZM56.85 13.5h1.275a1.275 1.275 0 0 0 0-2.55H56.85a1.275 1.275 0 1 0 0 2.55Z"/></g></svg>