<svg width="86" height="67" viewBox="0 0 86 67" fill="none" xmlns="http://www.w3.org/2000/svg">
<g id="Page 1">
<g id="026   Drill">
<path id="Shape" d="M81.2136 6.48538H75.5407V5.06716C75.5407 2.71738 73.6358 0.8125 71.286 0.8125H62.7767V0.845119C61.496 0.834996 60.2505 1.26451 59.2482 2.06195L42.3274 15.7038C41.5738 14.3928 40.1791 13.5822 38.667 13.5765H15.9754C13.6256 13.5765 11.7208 15.4814 11.7208 17.8312V27.7587H4.62966C2.27988 27.7587 0.375 29.6636 0.375 32.0134V51.8685C0.382568 53.6699 1.52385 55.2714 3.22421 55.8664C3.22421 55.9515 3.21144 56.0366 3.21144 56.1231C3.21144 61.606 7.65616 66.0507 13.139 66.0507C18.6218 66.0507 23.0665 61.606 23.0665 56.1231H31.5759C31.5697 61.4231 35.7277 65.7933 41.0215 66.0506C46.3152 66.3079 50.8775 62.3615 51.3853 57.0859C51.8931 51.8103 48.1673 47.0662 42.9216 46.309V34.9633L62.8803 14.4884C63.3082 16.4387 65.0347 17.829 67.0314 17.8312H69.8678V26.3405C69.8678 27.907 71.1377 29.1769 72.7043 29.1769V40.6049C68.6326 41.0432 65.6132 43.3379 65.6132 46.1956C65.6132 49.0533 68.6326 51.348 72.7043 51.7862V63.2142C72.7043 63.9975 73.3392 64.6325 74.1225 64.6325C74.9058 64.6325 75.5407 63.9975 75.5407 63.2142V60.2955C79.6124 59.8573 82.6318 57.5626 82.6318 54.7049C82.6318 51.8472 79.6124 49.5525 75.5407 49.1143V43.2769C79.6124 42.8386 82.6318 40.544 82.6318 37.6862C82.6318 34.8285 79.6124 32.5339 75.5407 32.0956V29.1769C77.1072 29.1769 78.3772 27.907 78.3772 26.3405V17.8312H81.2136C83.5634 17.8312 85.4683 15.9263 85.4683 13.5765V10.74C85.4683 8.39026 83.5634 6.48538 81.2136 6.48538ZM68.4496 46.1956C68.4496 45.061 70.1997 43.8229 72.7043 43.4683V48.9228C70.1997 48.5683 68.4496 47.3302 68.4496 46.1956ZM79.7954 54.7049C79.7954 55.8395 78.0453 57.0776 75.5407 57.4321V51.9777C78.0453 52.3322 79.7954 53.5703 79.7954 54.7049ZM79.7954 37.6862C79.7954 38.8208 78.0453 40.0589 75.5407 40.4135V34.959C78.0453 35.3136 79.7954 36.5517 79.7954 37.6862ZM72.7043 5.06716V6.48538H68.4298C68.436 5.49061 68.1786 4.51194 67.6838 3.64894H71.286C72.0693 3.64894 72.7043 4.2839 72.7043 5.06716ZM40.0852 17.8312V37.6862H23.0665C22.2833 37.6862 21.6483 37.0513 21.6483 36.268V16.4129H38.667C39.4502 16.4129 40.0852 17.0479 40.0852 17.8312ZM3.21144 51.8685V32.0134C3.21144 31.2301 3.8464 30.5951 4.62966 30.5951H11.7208V46.309C8.0255 46.848 4.94382 49.4121 3.74186 52.9477C3.41084 52.6868 3.21581 52.2899 3.21144 51.8685ZM13.139 63.2142C9.22268 63.2142 6.04788 60.0394 6.04788 56.1231C6.04788 52.2068 9.22268 49.032 13.139 49.032C17.0553 49.032 20.2301 52.2068 20.2301 56.1231C20.2254 60.0375 17.0534 63.2095 13.139 63.2142ZM22.6482 53.2867C21.5357 49.5865 18.3807 46.8656 14.5572 46.309V17.8312C14.5572 17.0479 15.1922 16.4129 15.9754 16.4129H18.8119V36.268C18.8119 38.6178 20.7168 40.5227 23.0665 40.5227H40.0852V46.309C36.2644 46.8682 33.1127 49.5886 32.0013 53.2867H22.6482ZM48.5945 56.1231C48.5945 60.0394 45.4197 63.2142 41.5034 63.2142C37.5871 63.2142 34.4123 60.0394 34.4123 56.1231C34.4123 52.2068 37.5871 49.032 41.5034 49.032C45.4178 49.0367 48.5898 52.2088 48.5945 56.1231ZM42.9216 18.865L61.0281 4.27154C61.6128 3.80289 62.3599 3.5859 63.1047 3.66836C63.8495 3.75082 64.531 4.12597 64.9991 4.71119C65.4637 5.28479 65.677 6.02175 65.5905 6.75485C63.9949 7.33552 62.8995 8.81202 62.8065 10.5075L42.9216 30.8958V18.865ZM75.5407 26.3405H72.7043V17.8312H75.5407V26.3405ZM82.6318 13.5765C82.6318 14.3598 81.9969 14.9947 81.2136 14.9947H67.0314C66.2481 14.9947 65.6132 14.3598 65.6132 13.5765V10.74C65.6132 9.95679 66.2481 9.32183 67.0314 9.32183H81.2136C81.9969 9.32183 82.6318 9.95679 82.6318 10.74V13.5765Z" fill="#F1F5F7"/>
<path id="Shape_2" d="M25.903 23.5041C26.2791 23.504 26.6398 23.3545 26.9057 23.0885L28.3239 21.6703C28.8614 21.1138 28.8537 20.2293 28.3066 19.6822C27.7596 19.1352 26.875 19.1275 26.3185 19.665L24.9003 21.0832C24.4948 21.4888 24.3736 22.0987 24.593 22.6285C24.8125 23.1584 25.3295 23.504 25.903 23.5041Z" fill="#F1F5F7"/>
<path id="Shape_3" d="M25.903 30.5952C26.2791 30.5951 26.6398 30.4456 26.9057 30.1797L35.415 21.6703C35.9525 21.1138 35.9448 20.2293 35.3977 19.6822C34.8507 19.1352 33.9661 19.1275 33.4096 19.665L24.9003 28.1743C24.4948 28.5799 24.3736 29.1898 24.593 29.7197C24.8125 30.2495 25.3295 30.5951 25.903 30.5952Z" fill="#F1F5F7"/>
<path id="Shape_4" d="M13.1389 51.8684C10.7891 51.8684 8.88422 53.7733 8.88422 56.1231C8.88422 58.4729 10.7891 60.3777 13.1389 60.3777C15.4887 60.3777 17.3935 58.4729 17.3935 56.1231C17.3935 53.7733 15.4887 51.8684 13.1389 51.8684ZM13.1389 57.5413C12.3556 57.5413 11.7207 56.9063 11.7207 56.1231C11.7207 55.3398 12.3556 54.7049 13.1389 54.7049C13.9221 54.7049 14.5571 55.3398 14.5571 56.1231C14.5571 56.9063 13.9221 57.5413 13.1389 57.5413Z" fill="#F1F5F7"/>
<path id="Shape_5" d="M37.2487 56.1231C37.2487 58.4729 39.1536 60.3777 41.5034 60.3777C43.8532 60.3777 45.758 58.4729 45.758 56.1231C45.758 53.7733 43.8532 51.8684 41.5034 51.8684C39.1536 51.8684 37.2487 53.7733 37.2487 56.1231ZM42.9216 56.1231C42.9216 56.9063 42.2866 57.5413 41.5034 57.5413C40.7201 57.5413 40.0852 56.9063 40.0852 56.1231C40.0852 55.3398 40.7201 54.7049 41.5034 54.7049C42.2866 54.7049 42.9216 55.3398 42.9216 56.1231Z" fill="#F1F5F7"/>
<path id="Shape_6" d="M24.4846 43.3591H23.0664C22.2832 43.3591 21.6482 43.9941 21.6482 44.7773C21.6482 45.5606 22.2832 46.1956 23.0664 46.1956H24.4846C25.2679 46.1956 25.9029 45.5606 25.9029 44.7773C25.9029 43.9941 25.2679 43.3591 24.4846 43.3591Z" fill="#F1F5F7"/>
</g>
</g>
</svg>
