<svg width="86" height="67" viewBox="0 0 86 67" fill="none" xmlns="http://www.w3.org/2000/svg"><g fill="#F1F5F7"><path d="M81.214 6.485H75.54V5.067A4.255 4.255 0 0 0 71.286.812h-8.51v.033a5.596 5.596 0 0 0-3.528 1.217l-16.92 13.642a4.24 4.24 0 0 0-3.661-2.128H15.975a4.255 4.255 0 0 0-4.254 4.255v9.928H4.63a4.255 4.255 0 0 0-4.255 4.254v19.855a4.255 4.255 0 0 0 2.85 3.998c0 .086-.014.17-.014.257 0 5.483 4.445 9.928 9.928 9.928 5.483 0 9.928-4.445 9.928-9.928h8.509a9.928 9.928 0 1 0 11.346-9.814V34.963L62.88 14.488a4.255 4.255 0 0 0 4.151 3.343h2.837v8.51a2.836 2.836 0 0 0 2.836 2.836v11.428c-4.071.438-7.09 2.733-7.09 5.59 0 2.858 3.019 5.153 7.09 5.591v11.428a1.418 1.418 0 1 0 2.837 0v-2.919c4.071-.438 7.09-2.732 7.09-5.59 0-2.858-3.019-5.152-7.09-5.59v-5.838c4.071-.438 7.09-2.733 7.09-5.59 0-2.858-3.019-5.153-7.09-5.591v-2.92a2.836 2.836 0 0 0 2.836-2.835v-8.51h2.837a4.255 4.255 0 0 0 4.254-4.255V10.74a4.255 4.255 0 0 0-4.254-4.255ZM68.45 46.195c0-1.134 1.75-2.372 4.254-2.727v5.455c-2.504-.355-4.254-1.593-4.254-2.727Zm11.345 8.51c0 1.135-1.75 2.373-4.254 2.727v-5.454c2.504.354 4.254 1.592 4.254 2.727Zm0-17.019c0 1.135-1.75 2.373-4.254 2.727V34.96c2.504.355 4.254 1.593 4.254 2.727Zm-7.09-32.619v1.418H68.43a5.632 5.632 0 0 0-.746-2.836h3.602c.783 0 1.418.635 1.418 1.418Zm-32.62 12.764v19.855H23.067a1.418 1.418 0 0 1-1.419-1.418V16.413h17.019c.783 0 1.418.635 1.418 1.418ZM3.211 51.87V32.012c0-.783.635-1.418 1.419-1.418h7.09V46.31a9.943 9.943 0 0 0-7.978 6.639 1.393 1.393 0 0 1-.53-1.08Zm9.928 11.345a7.091 7.091 0 1 1 7.091-7.09 7.1 7.1 0 0 1-7.091 7.09Zm9.51-9.927a9.945 9.945 0 0 0-8.092-6.978V17.831c0-.783.635-1.418 1.418-1.418h2.837v19.855a4.255 4.255 0 0 0 4.255 4.255h17.018v5.786a9.945 9.945 0 0 0-8.084 6.978h-9.353Zm25.945 2.836a7.091 7.091 0 1 1-7.09-7.091 7.1 7.1 0 0 1 7.09 7.091Zm-5.672-37.258L61.028 4.272a2.824 2.824 0 0 1 3.971.44c.465.573.678 1.31.592 2.043a4.24 4.24 0 0 0-2.784 3.753L42.921 30.896V18.865Zm32.619 7.476h-2.837v-8.51h2.837v8.51Zm7.09-12.765c0 .784-.634 1.419-1.417 1.419H67.03a1.418 1.418 0 0 1-1.418-1.418V10.74c0-.783.635-1.418 1.418-1.418h14.183c.783 0 1.418.635 1.418 1.418v2.836Z"/><path d="M25.903 23.504c.376 0 .737-.15 1.003-.416l1.418-1.418a1.418 1.418 0 0 0-2.006-2.005L24.9 21.083a1.418 1.418 0 0 0 1.003 2.421ZM25.903 30.595c.376 0 .737-.15 1.003-.415l8.509-8.51a1.418 1.418 0 0 0-2.005-2.005l-8.51 8.51a1.418 1.418 0 0 0 1.003 2.42ZM13.139 51.868a4.255 4.255 0 1 0 0 8.51 4.255 4.255 0 0 0 0-8.51Zm0 5.673a1.418 1.418 0 1 1 0-2.836 1.418 1.418 0 0 1 0 2.836ZM37.249 56.123a4.255 4.255 0 1 0 8.509 0 4.255 4.255 0 0 0-8.51 0Zm5.673 0a1.418 1.418 0 1 1-2.837 0 1.418 1.418 0 0 1 2.837 0ZM24.485 43.36h-1.419a1.418 1.418 0 0 0 0 2.836h1.419a1.418 1.418 0 0 0 0-2.837Z"/></g></svg>