<svg width="87" height="71" viewBox="0 0 87 71" fill="none" xmlns="http://www.w3.org/2000/svg"><g fill="#fff"><path d="M72.63.072H43.614a3.277 3.277 0 0 0-3.246 2.856h-4.225a2.819 2.819 0 0 0-2.818 2.815v.232h-4.434a7.753 7.753 0 0 0-7.641 6.47H1.387a1.262 1.262 0 1 0 0 2.524H21.25c.605 3.667 3.8 6.474 7.641 6.474h4.434v.232a2.819 2.819 0 0 0 2.818 2.814h4.224a3.277 3.277 0 0 0 3.247 2.857h1.9c.309 2.117.797 5.614-1.24 8.848-.526.831-.388 1.46-.178 1.84.208.379.662.831 1.636.831h5.28l-1.48 14.97h-5.007c-4.69 0-8.504 3.805-8.504 8.483v6.326a2.16 2.16 0 0 0 2.159 2.157h32.375a2.16 2.16 0 0 0 2.159-2.157V55.991a2.16 2.16 0 0 0-2.16-2.157h-3.498c.046-3.338.275-6.524.684-9.484a1.262 1.262 0 1 0-2.5-.346c-.425 3.074-.662 6.375-.709 9.83H52.068l1.593-16.097.001-.01 1.028-10.382h15.722c-1.785 3.227-3.14 6.847-4.12 11.001a1.262 1.262 0 0 0 2.457.58c1.054-4.473 2.56-8.275 4.593-11.6 7.206-.37 12.954-6.337 12.954-13.62C86.296 6.19 80.166.073 72.63.073ZM28.89 18.918c-2.879 0-5.221-2.338-5.221-5.212 0-2.87 2.342-5.207 5.221-5.207h4.434v10.419h-4.434Zm6.959 2.757V5.743c0-.16.131-.29.293-.29h4.195v16.511h-4.195a.295.295 0 0 1-.293-.29Zm34.339 46.601H38.545v-5.958c0-3.286 2.683-5.96 5.98-5.96h1.82v2.585c0 2.388 2.613 4.637 4.64 4.637h19.204v4.696Zm0-11.917v4.696H50.985c-.631 0-2.116-1.105-2.116-2.112v-2.585h21.32ZM51.263 36.34h-4.19c1.654-3.436 1.292-6.871.99-8.995h4.09l-.89 8.995ZM72.63 24.82h-5.145v-7.696a1.262 1.262 0 1 0-2.525 0v7.697H43.614a.759.759 0 0 1-.751-.747V3.344c0-.405.344-.747.75-.747H64.96v8.71a1.262 1.262 0 1 0 2.525 0v-8.71h5.145c6.143 0 11.142 4.984 11.142 11.11 0 6.128-4.999 11.114-11.142 11.114Z"/><path d="M71.709 10.635c-.697 0-1.263.565-1.263 1.263v3.617a1.262 1.262 0 1 0 2.525 0v-3.617c0-.698-.565-1.263-1.262-1.263ZM77.286 10.635c-.698 0-1.263.565-1.263 1.263v3.617a1.262 1.262 0 1 0 2.525 0v-3.617c0-.698-.565-1.263-1.262-1.263ZM56.08 5.723h-5.687c-2.4 0-4.354 1.95-4.354 4.347a4.355 4.355 0 0 0 4.354 4.346h5.687a4.353 4.353 0 0 0 4.349-4.346 4.353 4.353 0 0 0-4.35-4.347Zm0 6.169h-5.687a1.828 1.828 0 0 1-1.83-1.822c0-1.005.821-1.823 1.83-1.823h5.687c1.006 0 1.824.818 1.824 1.823a1.825 1.825 0 0 1-1.824 1.822Z"/></g></svg>