<svg width="16" height="16" viewBox="0 0 16 16" fill="none" xmlns="http://www.w3.org/2000/svg"><path fill-rule="evenodd" clip-rule="evenodd" d="M7.09 5.07c.41-.56.56-1.15.1-1.67A25.55 25.55 0 0 0 4.97.58a2.17 2.17 0 0 0-2.96 0l-.93.93c-2.24 2.25-.88 7 2.76 10.64 3.64 3.64 8.39 5 10.64 2.76l.93-.94c.72-.76.83-2.08 0-2.94-.43-.45-1.3-1.12-2.83-2.22-.47-.42-1.03-.33-1.54 0-.24.17-.42.33-.76.67l-.61.61c-.08.09-1.18-.46-2.24-1.53C6.37 7.5 5.82 6.4 5.9 6.32l.62-.62a11.92 11.92 0 0 0 .57-.63Zm3.72 6.16.61-.62c.19-.18.3-.3.4-.38 1.35.97 2.13 1.58 2.45 1.9.19.2.16.57 0 .74l-.9.9c-1.46 1.45-5.29.34-8.39-2.75-3.1-3.1-4.2-6.94-2.76-8.38l.92-.92c.15-.14.54-.17.72 0 .34.34.97 1.15 1.9 2.45a3.38 3.38 0 0 1-.37.4l-.62.62C3.73 6.23 4.62 8 6.31 9.69c1.68 1.69 3.46 2.58 4.5 1.54ZM9.33.06a7.6 7.6 0 0 1 6.62 6.62l-1.58.26a6 6 0 0 0-5.3-5.3L9.32.06ZM8.8 3.22A4.4 4.4 0 0 1 12.8 7.2l-1.59.27A2.8 2.8 0 0 0 8.54 4.8l.26-1.58Z" fill="#293449"/></svg>