<svg width="16" height="16" viewBox="0 0 16 16" fill="none" xmlns="http://www.w3.org/2000/svg">
<g id="icon / user" opacity="0.8">
<path id="icon" fill-rule="evenodd" clip-rule="evenodd" d="M8 16C3.58172 16 0 12.4183 0 8C0 3.58172 3.58172 0 8 0C12.4183 0 16 3.58172 16 8C16 12.4183 12.4183 16 8 16ZM13.3815 11.727C14.1154 10.6693 14.5455 9.38489 14.5455 8C14.5455 4.38505 11.615 1.45455 8 1.45455C4.38504 1.45455 1.45454 4.38505 1.45454 8C1.45454 9.38489 1.88464 10.6693 2.61855 11.727C3.43706 10.6459 5.36044 10.1818 8 10.1818C10.6396 10.1818 12.5629 10.6459 13.3815 11.727ZM12.338 12.9016C12.1251 12.1363 10.5959 11.6364 8 11.6364C5.40409 11.6364 3.87491 12.1363 3.66205 12.9016C4.81695 13.9245 6.33596 14.5455 8 14.5455C9.66404 14.5455 11.1831 13.9245 12.338 12.9016ZM8 3.63636C6.23935 3.63636 5.09091 4.91328 5.09091 6.54545C5.09091 9.03809 6.37154 10.1818 8 10.1818C9.61316 10.1818 10.9091 9.07608 10.9091 6.69091C10.9091 5.03387 9.75578 3.63636 8 3.63636ZM6.54546 6.54545C6.54546 8.19582 7.14052 8.72727 8 8.72727C8.85652 8.72727 9.45455 8.21701 9.45455 6.69091C9.45455 5.78212 8.88412 5.09091 8 5.09091C7.07908 5.09091 6.54546 5.68424 6.54546 6.54545Z" fill="white"/>
</g>
</svg>
